# xmcd
#
# Track frame offsets: 
#        182
#        29700
#        50050
#        81780
#
# Disc length: 1333 seconds
#
# Revision: 3
# Processed by: cddbd v1.5.2PL0 Copyright (c) Steve Scherf et al.
# Submitted via: ExactAudioCopy v1.0b6
#
DISCID=31053304
DTITLE=Thompson Twins - Get That Love
DYEAR=1987
DGENRE=Synthpop
TTITLE0=Get That Love (Extended Version)
TTITLE1=Perfect Day
TTITLE2=Get That Love (Dub)
TTITLE3=Get That Love (7" Version)
EXTD=Taken for the upcoming "Close to the Bone" album\nTWINSCD 12 (658
EXTD=944]\n
EXTT0=
EXTT1=
EXTT2=
EXTT3=
PLAYORDER=
